<svg width="512" height="512" viewBox="0 0 512 512" fill="none" xmlns="http://www.w3.org/2000/svg">
  <!-- Premium Blue Gradient Background -->
  <rect width="512" height="512" fill="url(#bg_grad)"/>
  <defs>
    <linearGradient id="bg_grad" x1="0%" y1="0%" x2="100%" y2="100%">
      <stop offset="0%" stop-color="#3b82f6"/>
      <stop offset="100%" stop-color="#1d4ed8"/>
    </linearGradient>
    <filter id="glow" x="-50%" y="-50%" width="200%" height="200%">
      <feGaussianBlur stdDeviation="25" result="blur"/>
      <feComposite in="SourceGraphic" in2="blur" operator="over"/>
    </filter>
  </defs>
  
  <!-- Subtle Glow Background -->
  <circle cx="256" cy="256" r="180" fill="#60a5fa" fill-opacity="0.15" filter="url(#glow)"/>
  
  <!-- Wrench Icon from Landing Page (scaled up from 24x24 viewBox) -->
  <g transform="translate(106, 106) scale(12.5)">
    <path
      stroke-linecap="round"
      stroke-linejoin="round"
      stroke-width="1.5"
      stroke="white"
      fill="none"
      d="M11.42 15.17 17.25 21A2.652 2.652 0 0 0 21 17.25l-5.877-5.877M11.42 15.17l2.496-3.03c.317-.384.74-.626 1.208-.766M11.42 15.17l-4.655 5.653a2.548 2.548 0 1 1-3.586-3.586l6.837-5.63m5.108-.233c.55-.164 1.163-.188 1.743-.14a4.5 4.5 0 0 0 4.486-6.336l-3.276 3.277a3.004 3.004 0 0 1-2.25-2.25l3.276-3.276a4.5 4.5 0 0 0-6.336 4.486c.049.58.025 1.194-.14 1.743"
    />
  </g>
</svg>
